<?xml version="1.0" encoding="UTF-8" standalone="no"?>
<svg
     height="301"
     width="511">
  <g
     id="layer1">
    <path
       style="opacity:1;fill:#241c1c;fill-opacity:1;fill-rule:nonzero;stroke:none;stroke-width:1.5;stroke-linecap:round;stroke-linejoin:round;stroke-miterlimit:4;stroke-dasharray:none"
       d="M 60.40625,0 C 58.72269,0.09256 57.11163,0.36529 55.59375,0.78125 C 51.476498,1.90952 48.61478,6.2786997 44.78125,11.15625 C 38.82844,18.73025 23.70863,13.67853 22.03125,20.40625 C 19.74862,29.56164 28.03137,31.21129 29.25,31.65625 C 25.38977,44.635506 13.900663,51.988052 3.6875,60.0625 C 0.55502001,62.923869 0,76.18749 0,76.1875 C 5.92061,80.77469 4.90757,79.39644 13.53125,80.5 C 18.40163,81.123259 18.43129,83.02888 25.59375,84.40625 C 28.66875,84.997589 33.86868,83.68423 36.625,84.15625 C 44.83475,85.562186 47.32138,88.80604 60.53125,90.5625 C 65.91125,91.277883 67.67015,88.38224 78.59375,88.34375 C 85.040542,88.32102 86.10089,92.4697 89.5625,96.15625 C 92.057783,98.813718 109.17601,138.1746 111.125,142 C 113.66136,146.97837 114.49944,149.72421 114.0625,151.6875 C 113.56537,153.92144 114.25542,155.36363 117.84375,159.40625 C 120.2671,162.13641 139.35754,183.80849 144.09375,187.59375 C 145.97287,189.09565 149.42474,188.03236 151.5625,191.59375 C 153.77156,195.27392 158.10223,217.02332 164.40625,228.65625 C 164.40587,228.65979 164.40631,228.68464 164.40625,228.6875 C 164.40922,228.6875 164.43384,228.68777 164.4375,228.6875 C 164.43692,228.69055 164.43765,228.71601 164.4375,228.71875 C 164.4495,228.73811 164.48406,228.78644 164.5,228.8125 C 165.60616,230.99445 165.57449,243.65806 165.4375,255 C 165.36356,260.89099 154.29018,281.81237 153.03125,284.5 C 149.6962,291.62044 150.72209,294.55099 157,295.6875 C 160.69057,296.35554 161.44806,296.3664 161.71875,296.46875 C 161.72022,296.46876 161.74273,296.46883 161.75,296.46875 C 161.74962,296.47227 161.75007,296.49713 161.75,296.5 C 161.75294,296.50009 161.7776,296.50022 161.78125,296.5 C 161.7827,296.50002 161.80515,296.50009 161.8125,296.5 C 161.81256,296.50704 161.81279,296.52959 161.8125,296.53125 L 161.8125,300.90625 C 181.00888,301.3738 190.7061,300.1279 193.1875,290.375 C 193.82892,287.85399 196.74946,287.86687 197.28125,287.75 C 197.28273,287.74995 197.30515,287.7499 197.3125,287.75 C 197.31255,287.74298 197.31268,287.7205 197.3125,287.71875 C 197.64901,278.28068 192.93412,270.83629 193.5625,238.9375 C 193.66673,233.64712 205.60521,190.09451 210.90625,189.28125 C 212.4225,189.04868 260.83487,183.42202 272.25,187.1875 C 276.1589,188.47696 307.46937,199.34319 309.96875,201.46875 C 309.98671,201.48501 310.01695,201.51611 310.03125,201.53125 C 312.4937,204.13985 315.49444,203.97786 321.28125,200.9375 C 323.85013,199.58788 399.0004,170.52823 404,169.3125 C 404.14989,169.31673 404.30943,169.2894 404.46875,169.28125 C 412.25397,195.50269 409.78892,186.09115 425.125,205.28125 C 425.12484,205.28296 425.12496,205.30547 425.125,205.3125 C 425.12891,205.32149 425.14799,205.35782 425.15625,205.375 C 425.7721,207.83483 424.77411,250.01581 418.46875,261.4375 C 417.14408,263.83706 406.62107,278.56024 411.34375,278.625 C 429.67323,278.87646 434.50358,278.10243 439.03125,272.25 L 444.34375,265 C 444.80632,247.04235 441.34732,230.37363 445.71875,214.625 C 447.21154,209.24705 447.80973,206.95225 448.40625,206.21875 C 448.44154,206.17708 448.49059,206.13023 448.53125,206.09375 C 448.53808,206.08818 448.55561,206.06745 448.5625,206.0625 C 448.57267,206.05648 448.61375,206.03677 448.625,206.03125 C 448.64758,206.02077 448.67116,206.00804 448.6875,206 C 448.69072,205.99647 448.71597,205.9716 448.71875,205.96875 C 448.72161,205.96877 448.74639,205.96864 448.75,205.96875 C 448.75545,205.96878 448.775,205.96843 448.78125,205.96875 C 448.78349,205.96869 448.81095,205.96899 448.8125,205.96875 C 448.81871,205.96893 448.84059,205.96903 448.84375,205.96875 C 448.85654,205.96805 448.89326,205.96865 448.90625,205.96875 C 448.91281,205.96902 448.92519,205.96897 448.9375,205.96875 C 448.94297,205.96878 448.96543,205.96842 448.96875,205.96875 C 448.97418,205.96865 448.99389,205.969 449,205.96875 C 449.00231,205.96888 449.02955,205.96843 449.03125,205.96875 C 449.37716,206.03923 449.79696,206.34322 450.40625,206.71875 C 453.89459,208.86885 455.05206,230.6401 457.1875,245.53125 C 457.92992,250.70857 455.78618,260.83645 455.3125,262.28125 C 451.1313,275.03549 445.30333,278.15919 444.09375,287.34375 L 451.21875,288.03125 C 459.61675,288.84811 465.94805,287.82741 471.15625,285.5 C 477.7154,282.56892 477.70041,279.07501 484.40625,261.96875 C 484.40602,261.96555 484.40633,261.94031 484.40625,261.9375 C 484.40998,261.93448 484.4307,261.91284 484.4375,261.90625 C 484.76555,259.78131 479.96534,230.54724 479.625,223.59375 C 479.03015,211.43978 479.10466,210.55713 481.3125,207.03125 C 483.34291,203.78879 484.43743,202.29687 483.03125,196.5625 C 476.46607,169.78944 488.40355,140.5572 489.8125,138.375 C 489.81528,138.37226 489.84048,138.34674 489.84375,138.34375 C 489.84519,138.34376 489.86759,138.34368 489.875,138.34375 C 489.8747,138.33263 489.87539,138.29216 489.875,138.28125 C 489.88233,138.28135 489.90483,138.28122 489.90625,138.28125 C 489.90669,138.28149 489.92992,138.28137 489.9375,138.28125 C 489.93743,138.2879 489.93751,138.30987 489.9375,138.3125 C 489.93748,139.2173 484.40627,165.2375 484.40625,169.8125 C 484.40625,171.9414 484.89306,174.15098 485.5,174.75 C 485.50325,174.75319 485.52458,174.77463 485.53125,174.78125 C 485.54719,174.8027 485.57815,174.84915 485.59375,174.875 C 485.5997,174.88707 485.61703,174.92192 485.625,174.9375 C 485.63911,174.95921 485.67286,175.00615 485.6875,175.03125 C 486.23014,176.21386 486.46559,179.97371 486.28125,185.09375 C 486.09742,190.20187 486.18003,193.03305 486.625,193.90625 C 486.63007,193.91678 486.65078,193.95793 486.65625,193.96875 C 486.67238,193.99469 486.70249,194.04076 486.71875,194.0625 C 486.72155,194.06532 486.74673,194.09057 486.75,194.09375 C 486.75184,194.0955 486.77438,194.11802 486.78125,194.125 C 486.78315,194.12646 486.80567,194.14911 486.8125,194.15625 C 486.81984,194.15618 486.84236,194.15627 486.84375,194.15625 C 486.85046,194.16302 486.87161,194.18381 486.875,194.1875 C 486.88234,194.18746 486.90486,194.1875 486.90625,194.1875 C 486.90729,194.18777 486.93471,194.1875 486.9375,194.1875 C 486.93965,194.18772 486.96203,194.18756 486.96875,194.1875 C 486.97315,194.18753 486.99557,194.1877 487,194.1875 C 487.00224,194.18735 487.02457,194.18737 487.03125,194.1875 C 487.03239,194.1873 487.05973,194.18744 487.0625,194.1875 C 487.08656,194.18026 487.13886,194.16396 487.15625,194.15625 C 487.16942,194.1499 487.20274,194.13332 487.21875,194.125 C 487.5538,193.91311 487.97875,193.30507 488.5,192.34375 C 488.90632,191.59442 489.43303,190.91123 489.84375,190.5625 C 489.90159,190.51491 490.00368,190.44416 490.0625,190.40625 C 490.09403,190.39033 490.16266,190.35673 490.1875,190.34375 C 490.19015,190.34047 490.2159,190.31541 490.21875,190.3125 C 490.22164,190.31248 490.24665,190.31226 490.25,190.3125 C 490.25729,190.31257 490.28009,190.31258 490.28125,190.3125 C 490.28762,190.31244 490.30982,190.3124 490.3125,190.3125 C 490.31574,190.31234 490.33755,190.31245 490.34375,190.3125 C 490.3462,190.31279 490.36845,190.31267 490.375,190.3125 C 490.39081,190.31686 490.44399,190.33447 490.46875,190.34375 C 490.47021,190.34378 490.49264,190.34384 490.5,190.34375 C 490.50005,190.35076 490.50019,190.37324 490.5,190.375 C 490.50253,190.37826 490.52865,190.40346 490.53125,190.40625 C 490.53415,190.40622 490.55884,190.40642 490.5625,190.40625 C 490.57868,190.42242 490.61458,190.45914 490.625,190.46875 C 492.39999,192.1661 498.67593,205.99292 499.28125,209.78125 C 499.50638,211.18997 499.76259,212.10165 500.09375,212.59375 C 500.11101,212.6185 500.13848,212.66491 500.15625,212.6875 C 500.16224,212.6948 500.18147,212.71169 500.1875,212.71875 C 500.21009,212.74418 500.25784,212.79029 500.28125,212.8125 C 500.2842,212.81521 500.30618,212.83724 500.3125,212.84375 C 500.31916,212.85042 500.34061,212.87169 500.34375,212.875 C 500.34668,212.87497 500.37445,212.87467 500.375,212.875 C 500.37469,212.87853 500.37508,212.90339 500.375,212.90625 C 500.37875,212.90614 500.40336,212.9063 500.40625,212.90625 C 500.4129,212.91295 500.4344,212.93408 500.4375,212.9375 C 500.45383,212.9458 500.49019,212.96385 500.5,212.96875 C 500.50993,212.97343 500.54614,212.99189 500.5625,213 C 500.56392,212.99998 500.58644,213.00004 500.59375,213 C 500.60464,213.00561 500.64567,213.02581 500.65625,213.03125 C 500.6591,213.03125 500.68403,213.03137 500.6875,213.03125 C 500.69481,213.03119 500.7176,213.03117 500.71875,213.03125 C 500.72474,213.03097 500.74459,213.03137 500.75,213.03125 C 500.75289,213.03128 500.78039,213.03099 500.78125,213.03125 C 500.78411,213.03475 500.80595,213.05579 500.8125,213.0625 C 500.8139,213.06246 500.83641,213.06254 500.84375,213.0625 C 501.03632,213.0692 501.25687,212.99835 501.5,212.90625 C 501.7405,212.81519 501.95769,212.70772 502.125,212.5625 C 502.16097,212.53017 502.21139,212.47826 502.25,212.4375 C 502.25594,212.43096 502.276,212.41241 502.28125,212.40625 C 502.28455,212.40318 502.30585,212.38154 502.3125,212.375 C 502.31228,212.36375 502.31293,212.32333 502.3125,212.3125 C 502.31541,212.31252 502.33998,212.31228 502.34375,212.3125 C 502.35997,212.2894 502.39111,212.24319 502.40625,212.21875 C 502.83567,211.498 502.83841,210.21737 502.5,207.78125 C 502.23875,205.89994 502.11701,204.78028 502.21875,204.28125 C 502.2245,204.27581 502.24424,204.25534 502.25,204.25 C 502.24975,204.24698 502.25007,204.22143 502.25,204.21875 C 502.25729,204.20356 502.27493,204.16837 502.28125,204.15625 C 502.28109,204.15466 502.28121,204.13206 502.28125,204.125 C 502.28277,204.12499 502.30515,204.12491 502.3125,204.125 C 502.31257,204.11799 502.3127,204.09551 502.3125,204.09375 C 502.31916,204.08721 502.34065,204.06533 502.34375,204.0625 C 502.34717,204.05888 502.36897,204.03736 502.375,204.03125 C 502.38162,204.0246 502.40334,204.00326 502.40625,204 C 502.4136,204.00005 502.43612,203.99997 502.4375,204 C 502.439,203.99994 502.46139,203.9999 502.46875,204 C 502.46882,203.99298 502.46894,203.97049 502.46875,203.96875 C 502.47115,203.96846 502.49341,203.96861 502.5,203.96875 C 502.50505,203.96867 502.52609,203.96862 502.53125,203.96875 C 502.53391,203.96898 502.55604,203.96887 502.5625,203.96875 C 502.56585,203.97215 502.58717,203.99351 502.59375,204 C 502.60105,203.99996 502.62364,204.00002 502.625,204 C 502.81402,204.05917 503.08172,204.23417 503.40625,204.5 C 503.77786,204.80442 504.10965,205.07572 504.34375,205.1875 C 504.34517,205.18748 504.3677,205.18755 504.375,205.1875 C 504.38601,205.19315 504.42705,205.21335 504.4375,205.21875 C 504.44036,205.21875 504.46524,205.21885 504.46875,205.21875 C 504.47602,205.21869 504.49881,205.21866 504.5,205.21875 C 504.50592,205.21857 504.52592,205.21891 504.53125,205.21875 C 504.54206,205.21872 504.57763,205.21901 504.59375,205.21875 C 504.6056,205.21515 504.63798,205.19353 504.65625,205.1875 C 504.66401,205.18481 504.6831,205.18926 504.6875,205.1875 C 504.69034,205.18425 504.716,205.15908 504.71875,205.15625 C 504.7304,205.15088 504.77085,205.13027 504.78125,205.125 C 504.78772,205.11866 504.80992,205.09672 504.8125,205.09375 C 504.81224,205.09215 504.81241,205.06957 504.8125,205.0625 C 505.19228,204.43592 505.16837,202.00268 505.09375,195.875 C 505.05258,192.49447 505.04912,190.7405 505.21875,190.1875 C 505.21838,190.18427 505.21881,190.15906 505.21875,190.15625 C 505.2217,190.15339 505.24636,190.12827 505.25,190.125 C 505.24996,190.12214 505.25017,190.0972 505.25,190.09375 C 505.2571,190.08071 505.27324,190.04645 505.28125,190.03125 C 505.2886,190.03135 505.31111,190.0312 505.3125,190.03125 C 505.3158,190.02792 505.33713,190.00654 505.34375,190 C 505.34583,189.99996 505.36826,190.00002 505.375,190 C 505.37609,190.00027 505.40348,190.00006 505.40625,190 C 505.40774,190.00005 505.43014,190.0001 505.4375,190 C 505.43756,190.007 505.43769,190.0295 505.4375,190.03125 C 505.4404,190.03121 505.46818,190.03096 505.46875,190.03125 C 505.46835,190.03474 505.46881,190.05962 505.46875,190.0625 C 505.47176,190.06261 505.49632,190.0627 505.5,190.0625 C 505.52548,190.09454 505.57101,190.15795 505.59375,190.1875 C 505.80018,190.46691 506.09164,191.03063 506.46875,191.8125 C 507.27561,193.48552 507.95657,195.53853 508,196.375 C 508.01091,196.58552 508.05721,196.77424 508.09375,196.90625 C 508.10207,196.93397 508.11416,196.97271 508.125,197 C 508.1333,197.0195 508.1482,197.04794 508.15625,197.0625 C 508.15589,197.07364 508.15655,197.11406 508.15625,197.125 C 508.15913,197.12498 508.18376,197.12523 508.1875,197.125 C 508.18689,197.12829 508.1875,197.15333 508.1875,197.15625 C 508.1904,197.15625 508.21513,197.1565 508.21875,197.15625 C 508.22611,197.1562 508.24859,197.15626 508.25,197.15625 C 508.25332,197.15962 508.27466,197.18099 508.28125,197.1875 C 508.28281,197.1878 508.3055,197.18761 508.3125,197.1875 C 508.31577,197.18775 508.33762,197.18752 508.34375,197.1875 C 508.3506,197.18762 508.37309,197.18781 508.375,197.1875 C 508.39851,197.18077 508.44908,197.16505 508.46875,197.15625 C 508.50151,197.13447 508.56294,197.08605 508.59375,197.0625 C 508.82887,196.87318 509.17064,196.48962 509.59375,195.9375 C 511.59141,193.33086 511.50655,191.36307 509.0625,184.5 C 507.95085,181.37834 507.5479,179.53533 507.78125,178.625 C 507.80387,178.54316 507.84151,178.44171 507.875,178.375 C 507.88076,178.36419 507.89812,178.32861 507.90625,178.3125 C 507.90773,178.3125 507.93015,178.31242 507.9375,178.3125 C 507.93729,178.31073 507.93743,178.28827 507.9375,178.28125 C 507.93894,178.28125 507.96134,178.28118 507.96875,178.28125 C 507.96839,178.2702 507.96907,178.22976 507.96875,178.21875 C 507.97531,178.21235 507.99749,178.19031 508,178.1875 C 508.00517,178.18209 508.02595,178.16153 508.03125,178.15625 C 508.03768,178.14968 508.05973,178.12746 508.0625,178.125 C 508.06397,178.12497 508.08639,178.12491 508.09375,178.125 C 508.0938,178.11798 508.09394,178.09551 508.09375,178.09375 C 508.09666,178.09378 508.12446,178.09405 508.125,178.09375 C 508.12491,178.09088 508.12532,178.06603 508.125,178.0625 C 508.13247,178.06272 508.15557,178.06282 508.15625,178.0625 C 508.17984,178.04707 508.23227,178.01227 508.25,178 C 508.25146,177.99998 508.27389,177.99991 508.28125,178 C 508.2813,177.993 508.28144,177.97051 508.28125,177.96875 C 508.28707,177.96378 508.30605,177.94324 508.3125,177.9375 C 508.33995,177.91214 508.38052,177.87144 508.40625,177.84375 C 508.41205,177.83714 508.43253,177.81863 508.4375,177.8125 C 508.43898,177.81251 508.4614,177.81241 508.46875,177.8125 C 508.46858,177.81074 508.4687,177.78827 508.46875,177.78125 C 508.47022,177.78127 508.49259,177.78118 508.5,177.78125 C 508.49967,177.77024 508.50035,177.7298 508.5,177.71875 C 508.96335,176.96554 508.8169,175.29472 508.03125,172.0625 C 506.99588,167.80291 506.9948,166.34396 508.0625,164.375 C 509.16501,162.34178 509.11459,160.90994 507.6875,155.84375 C 506.34669,151.0843 505.88962,149.07248 506.21875,148.25 C 506.21856,148.23922 506.21903,148.19864 506.21875,148.1875 C 506.22433,148.18187 506.24424,148.16146 506.25,148.15625 C 506.25346,148.15308 506.27453,148.13166 506.28125,148.125 C 506.28101,148.12339 506.28118,148.10082 506.28125,148.09375 C 506.30395,148.06784 506.35097,148.02396 506.375,148 C 506.37745,147.99462 506.40429,147.9747 506.40625,147.96875 C 506.40728,147.96584 506.40504,147.94021 506.40625,147.9375 C 506.4091,147.93754 506.4339,147.93725 506.4375,147.9375 C 506.45483,147.92542 506.50676,147.89073 506.53125,147.875 C 506.5419,147.86943 506.58299,147.84924 506.59375,147.84375 C 506.59661,147.8438 506.6215,147.8436 506.625,147.84375 C 506.84974,147.75738 507.1416,147.71876 507.5,147.71875 C 507.88166,147.71876 508.20425,147.60466 508.4375,147.40625 C 509.412,146.52045 509.03401,143.85855 507.28125,139.96875 C 505.74649,136.56267 505.49482,132.01448 505.375,105.625 C 505.22654,72.936344 499.80936,44.86729 499.1875,43.28125 C 490.81622,21.929782 492.26027,25.37111 480.71875,15.0625 C 464.35329,16.179503 449.57008,17.438328 435.90625,18.75 C 435.52302,18.494295 435.19162,18.388469 434.75,18.84375 C 386.97622,23.462532 353.85736,28.707513 322.59375,30.59375 C 254.74955,34.687015 226.99064,35.487965 203.28125,32.15625 C 203.28296,32.072944 203.27954,31.989556 203.28125,31.90625 C 202.91626,32.051236 202.42489,32.02467 201.90625,31.96875 C 174.95102,27.974232 152.39188,18.533082 80.28125,2.28125 C 74.308388,0.93512412 67.48498,-0.0935 61.5,0 C 61.305101,0.0030400002 61.130679,-0.0068 60.9375,0 C 60.82079,0.0041000002 60.67872,-0.00562 60.5625,0 C 60.50803,0.0026300002 60.46056,-0.00299 60.40625,0 z "
       id="Cow" />
    <path
       style="opacity:1;fill:#ff2a2a;fill-opacity:1;fill-rule:nonzero;stroke:none;stroke-width:1.5;stroke-linecap:round;stroke-linejoin:round;stroke-miterlimit:4;stroke-dasharray:none"
       d="M 203.1875,36.125 C 222.51206,38.645931 242.12382,38.72147 261.6875,38 C 261.71302,38.08282 261.71807,38.16034 261.75,38.25 C 261.97917,58.083333 262.20833,77.916667 262.4375,97.75 C 242.17708,97.666642 221.91665,97.587244 201.65625,97.5 C 202.22119,89.965837 202.51053,82.399526 202.3125,74.8125 C 202.59642,61.91474 202.91419,49.022967 203.1875,36.125 z "
       id="ForeRib" />
    <path
       style="opacity:1;fill:yellow;fill-opacity:1;fill-rule:nonzero;stroke:none;stroke-width:1.5;stroke-linecap:round;stroke-linejoin:round;stroke-miterlimit:4;stroke-dasharray:none"
       d="M 100.34375,14.03125 C 109.3633,13.838905 130.03502,18.760787 149.375,23.75 L 149.34375,24.28125 C 148.02323,47.122025 145.6323,72.430388 138.6875,92.1875 C 136.89482,95.615868 134.65662,99.009178 134.125,101.21875 C 131.13225,107.05968 126.79606,112.77473 118.03125,117 C 114.36995,119.02515 110.83241,121.31269 106.90625,120.8125 C 99.920529,104.98706 92.998968,90.018454 91.0625,88.4375 C 77.195985,76.679495 96.375632,32.773563 95.6875,16.21875 C 95.522639,14.759134 97.259913,14.097014 100.34375,14.03125 z "
       id="Neck_Clod" />
    <path
       style="opacity:1;fill:#d4aa00;fill-opacity:1;fill-rule:nonzero;stroke:none;stroke-width:1.5;stroke-linecap:round;stroke-linejoin:round;stroke-miterlimit:4;stroke-dasharray:none"
       d="M 478.90625,19.34375 C 484.61716,18.965514 495.01949,41.288218 494.78125,47.0625 C 493.10569,72.325048 493.53748,87.023113 492.78125,97.75 C 492.6225,97.815687 492.46891,97.896565 492.28125,98 C 485.43717,99.133371 474.4628,102.05973 472.78125,99.84375 C 471.00981,96.370162 474.34256,87.100444 473.8125,77.875 C 473.94055,65.951945 473.17528,52.094697 469.03125,40.75 C 466.98972,33.996264 463.40244,23.898778 463.6875,21.53125 C 465.40727,19.558006 473.56521,19.675395 478.90625,19.34375 z "
       id="Topside" />
    <path
       style="opacity:1;fill:fuchsia;fill-opacity:1;fill-rule:nonzero;stroke:none;stroke-width:1.5;stroke-linecap:round;stroke-linejoin:round;stroke-miterlimit:4;stroke-dasharray:none"
       d="M 451.96875,20.5 C 452.71454,20.483188 453.43147,20.488468 454.09375,20.5 C 455.85982,20.530752 457.26948,20.654538 457.90625,20.90625 C 460.26737,22.272967 460.99316,29.095636 461.99299,32.12096 C 465.75783,44.003966 469.08399,55.934831 468.9375,68.5625 C 469.59437,77.672613 468.94948,87.615237 468.09375,95.59375 C 467.42013,97.459816 467.39678,99.330237 465.40625,101.5 C 464.20458,102.98865 447.79018,106.79971 445.8125,104.40625 C 447.22505,97.498287 446.75266,57.136344 440.75,33.4375 C 440.2805,29.830744 437.8657,25.25683 438.65625,22.6875 C 439.98355,21.422894 446.74825,20.617682 451.96875,20.5 z "
       id="Silverside" />
    <path
       style="opacity:1;fill:green;fill-opacity:1;fill-rule:nonzero;stroke:none;stroke-width:1.5;stroke-linecap:round;stroke-linejoin:round;stroke-miterlimit:4;stroke-dasharray:none"
       d="M 430.9375,24.125 C 431.42469,24.138841 431.7622,24.188168 431.9375,24.25 C 433.67388,25.350912 435.05027,30.590738 435.71875,33.90625 C 441.28271,56.094849 442.0301,79.07482 439.59375,101.78125 C 439.41024,104.34787 439.27729,106.58727 438.90625,109 C 438.12118,115.70693 436.6971,122.21748 432.71875,128 C 429.97905,133.5362 427.64103,136.15915 422.59375,140.40625 C 420.02369,142.00527 416.93218,145.91704 415.875,144.03125 C 413.1241,139.95812 409.63351,136.91125 407.78125,131.75 C 401.01791,108.04524 390.7055,79.905991 383,54 C 381.90149,45.55616 379.71355,34.034245 380.4375,30.75 C 383.53671,28.864523 423.62967,23.917387 430.9375,24.125 z "
       id="Rump" />
    <path
       style="opacity:1;fill:#c87137;fill-opacity:1;fill-rule:nonzero;stroke:none;stroke-width:1.5;stroke-linecap:round;stroke-linejoin:round;stroke-miterlimit:4;stroke-dasharray:none"
       d="M 154.34375,25.03125 C 161.75103,26.967149 169.07669,28.915908 174.9375,30.4375 C 182.61749,32.586826 190.37622,34.209394 198.1875,35.40625 C 197.46077,56.056728 197.77747,76.79168 196.53125,97.40625 C 196.48751,97.425206 196.44504,97.443936 196.40625,97.46875 C 178.19794,97.390624 159.98958,97.32035 141.78125,97.25 C 151.74382,76.956692 152.32641,53.182536 154.0625,30.90625 C 154.52578,29.084789 154.65624,26.829508 154.34375,25.03125 z "
       id="Chuck_Blade" />
    <path
       style="opacity:1;fill:lime;fill-opacity:1;fill-rule:nonzero;stroke:none;stroke-width:1.5;stroke-linecap:round;stroke-linejoin:round;stroke-miterlimit:4;stroke-dasharray:none"
       d="M 372.625,32.34375 C 376.94491,32.125657 379.09163,62.153468 384.71875,78.34375 C 387.54377,86.446905 391.22727,98.493434 390.53125,102.03125 C 382.35782,100.92631 310.40493,111.55161 269.71875,109.90625 C 267.15902,107.84062 267.20647,105.34819 267.4375,99.46875 C 267.24877,78.916198 264.41595,42.119569 267.53125,39.375 C 270.64669,36.746218 337.29518,32.813414 372.625,32.34375 z "
       id="Sirloin" />
    <path
       style="opacity:1;fill:#ff7f2a;fill-opacity:1;fill-rule:nonzero;stroke:none;stroke-width:1.5;stroke-linecap:round;stroke-linejoin:round;stroke-miterlimit:4;stroke-dasharray:none"
       d="M 212.8125,101.125 C 226.12029,101.1115 248.29489,102.66779 262.28125,102.71875 C 263.30529,114.61568 264.10893,130.99628 264.53125,145.78125 C 264.40105,145.83468 264.27332,145.89358 264.125,145.96875 C 242.57275,148.83206 201.37415,155.67156 200.06184,154.5625 C 198.77596,153.47576 200.52889,119.65089 201.125,102.40625 L 201.78125,102.40625 C 202.57381,101.46547 206.76351,101.13114 212.8125,101.125 z "
       id="ThinRib" />
    <path
       style="opacity:1;fill:#ff8080;fill-opacity:1;fill-rule:nonzero;stroke:none;stroke-width:1.5;stroke-linecap:round;stroke-linejoin:round;stroke-miterlimit:4;stroke-dasharray:none"
       d="M 149.66433,101.82961 C 165.23727,101.8917 193.52063,102.27344 194.8346,103.82367 C 196.29448,105.41639 196.04818,153.33119 194.3125,155.25 C 191.05042,158.25028 129.21383,165.00991 127.9375,164.0625 C 126.63495,163.22663 124.56883,160.39231 122.5625,158.375 C 116.68209,155.13389 119.21537,148.17421 116.5,143.0625 C 114.2402,138.89723 107.94379,129.10985 108.9375,127.40625 C 109.71431,125.90081 113.3531,125.04736 115.46875,124.09375 C 124.59521,119.60371 133.50438,113.68795 137.96875,104.125 C 138.31168,103.58183 138.64215,103.01813 138.96875,102.46875 C 139.4358,101.14059 146.31752,101.70767 149.66433,101.82961 z"
       id="ThickRib" />
    <path
       style="opacity:1;fill:blue;fill-opacity:1;fill-rule:nonzero;stroke:none;stroke-width:1.5;stroke-linecap:round;stroke-linejoin:round;stroke-miterlimit:4;stroke-dasharray:none"
       d="M 394.5,107.875 C 397.52719,107.76344 400.77932,126.79791 404.34375,136.0625 C 406.50015,142.53491 417.97435,156.23075 416.9375,158.46875 C 408.61327,165.25288 395.2076,167.96387 384.96875,172.1875 C 361.83875,181.72885 317.30391,199.02679 314.87298,199.08264 C 312.94896,198.9605 294.88889,190.62088 284.53125,187.25 C 279.73027,185.043 275.10983,183.68542 270.04236,182.89012 C 269.46877,182.76412 270.01955,176.45982 270.15625,173.21875 C 269.54933,154.34231 267.37621,119.98432 269.09375,117.625 C 271.33153,115.3261 352.45818,108.01597 394.5,107.875 z "
       id="Flank" />
    <path
       style="opacity:1;fill:aqua;fill-opacity:1;fill-rule:nonzero;stroke:none;stroke-width:1.5;stroke-linecap:round;stroke-linejoin:round;stroke-miterlimit:4;stroke-dasharray:none"
       d="M 264.6875,150.9375 C 265.04688,166.77865 264.863,179.68963 263.875,181.09375 C 246.24046,182.83119 212.71942,186.20831 210.0625,184.96875 C 209.68108,184.7908 209.28191,184.67658 208.875,184.625 C 208.23805,183.03324 206.35008,181.28675 204.9375,179.625 C 199.94491,174.03062 194.24937,166.64677 185.6875,168.4375 L 185.03125,168.4375 C 178.10228,169.46567 169.37298,167.63002 164.40625,173.75 C 160.26837,177.42738 154.93113,182.65963 152.60385,184.83365 C 151.72991,185.51464 148.15324,183.0189 144.25,180.0625 C 139.06077,176.13206 135.55486,172.50934 132.09375,168.6875 C 134.08858,168.30737 136.20264,167.74469 137.875,167.78125 C 157.43595,165.18273 176.99841,162.5695 196.5625,159.96875 C 196.60345,159.96331 196.64655,159.97419 196.6875,159.96875 C 196.96088,159.9692 197.21374,159.92922 197.4375,159.875 C 197.44842,159.87235 197.45794,159.87777 197.46875,159.875 C 219.87637,156.8963 242.28227,153.90436 264.6875,150.9375 z "
       id="Brisket" />
    <path
       style="opacity:1;fill:olive;fill-opacity:1;fill-rule:nonzero;stroke:none;stroke-width:1.5;stroke-linecap:round;stroke-linejoin:round;stroke-miterlimit:4;stroke-dasharray:none"
       d="M 476.15814,167.5 C 478.5004,167.12945 477.33484,185.75715 478.875,194.65625 C 480.98765,199.09153 479.8208,203.78675 476.96875,207.6875 C 474.74289,216.54498 471.26778,256.43474 457.98895,213.125 C 457.99138,209.33004 452.842,204.20239 452.0827,202.65625 C 451.70063,201.85288 451.43822,201.321 450.9375,199.8125 C 445.9708,189.72765 440.41323,180.82602 434.22885,171.39722 C 433.53077,170.43738 437.606,170.09724 439.09375,170.21875 C 452.08974,169.30687 463.16361,168.43193 476.15814,167.5 z "
       id="Leg" />
    <path
       style="opacity:1;fill:teal;fill-opacity:1;fill-rule:nonzero;stroke:none;stroke-width:1.5;stroke-linecap:round;stroke-linejoin:round;stroke-miterlimit:4;stroke-dasharray:none"
       d="M 186.34375,173.3125 C 190.15905,173.26959 193.77042,174.03452 196.15625,177.53125 C 199.11184,180.45104 201.4612,182.94448 204.05038,186.19855 C 205.67742,187.95477 197.8493,208.20193 194.59375,218.875 C 191.99895,227.30496 171.8242,233.82272 168.96875,228.6875 C 164.17416,221.1549 160.73553,210.02195 159.20372,204.40625 C 157.72381,198.65036 155.53956,193.45596 155.3488,190.21982 C 155.38483,188.71896 159.3321,183.94296 161.31856,182.36585 C 166.19003,178.08493 170.246,172.97651 177.53125,174 C 180.29255,173.87247 183.37629,173.34588 186.34375,173.3125 z "
       id="Shin" />
    <path
       style="opacity:1;fill:#c4c8b7;fill-opacity:1;fill-rule:nonzero;stroke:none;stroke-width:1.50000000000000000;stroke-linecap:round;stroke-linejoin:round;stroke-miterlimit:4;stroke-dasharray:none"
       d="M 492.375,103.0625 C 491.40242,115.32456 490.39393,121.91861 487.75,135.375 C 483.99894,139.62533 480.15899,162.51871 478.0625,162.5 C 472.03421,162.46501 431.76698,166.88085 430.42942,164.90922 C 426.45674,158.98131 421.04023,151.75665 419.86005,149.44806 C 418.72868,148.00143 430.9006,140.63855 433.90625,136.84375 C 437.65137,128.51299 444.27409,117.70938 443.76437,111.7856 C 443.78166,110.41884 450.20828,109.96061 452.60812,109.65625 C 465.8771,107.4682 479.10372,105.23644 492.375,103.0625 z "
       id="ThickFlank" />
  </g>
</svg>
